<?xml version="1.0"?>
<svg xmlns="http://www.w3.org/2000/svg" id="Layer_1" enable-background="new 0 0 512.417 512.417" height="512px" viewBox="0 0 512.417 512.417" width="512px" class=""><g><path d="m506.324 407.537-156.147-155.563c-1.408-1.403-3.013-2.572-4.749-3.493 5.831-24.472 8.78-48.447 8.78-71.481 0-97.598-79.402-177-177-177s-177 79.402-177 177c0 39.711 8.726 81.884 25.936 125.348 13.549 34.218 32.379 69.356 55.967 104.437 39.964 59.438 79.521 97.973 81.186 99.584 3.877 3.754 8.895 5.631 13.912 5.631s10.034-1.877 13.912-5.631c2.208-2.138 51.016-49.75 94.838-120.755l121.425 120.971c3.903 3.888 9.009 5.832 14.116 5.832 5.119 0 10.237-1.953 14.142-5.858l70.71-70.711c3.755-3.755 5.863-8.85 5.858-14.161-.007-5.311-2.124-10.402-5.886-14.15zm-99.101-42.267-42.427 42.426-80.775-80.473-8.482-50.892 50.932 8.489zm-230.011 97.799c-37.353-40.787-137.004-161.309-137.004-286.069 0-75.542 61.458-137 137-137s137 61.458 137 137c0 20.429-2.727 41.859-8.1 63.874l-51.612-8.602c-6.37-1.06-12.862 1.019-17.43 5.586-4.567 4.567-6.647 11.059-5.586 17.43l14.142 84.853c.688 4.124 2.65 7.93 5.612 10.88l5.557 5.536c-28.8 48.364-61.487 86.772-79.579 106.512zm244.259 1.09-28.338-28.232 42.427-42.426 28.337 28.231zm-244.263-347.159c-33.084 0-60 26.916-60 60s26.916 60 60 60 60-26.916 60-60-26.916-60-60-60zm0 80c-11.028 0-20-8.972-20-20s8.972-20 20-20 20 8.972 20 20-8.972 20-20 20z" data-original="#000000" class="active-path" data-old_color="#000000" fill="#F8931C"/></g> </svg>
