<?xml version="1.0" encoding="UTF-8"?>
<svg xmlns="http://www.w3.org/2000/svg" xmlns:xlink="http://www.w3.org/1999/xlink" width="24px" height="24px" viewBox="0 0 24 24" version="1.1">
<g id="surface1">
<path style=" stroke:none;fill-rule:nonzero;fill:rgb(88.627451%,88.627451%,88.627451%);fill-opacity:1;" d="M 12.90625 20.214844 L 10.285156 21.078125 C 9.511719 21.335938 8.722656 20.699219 8.53125 19.671875 L 7.664062 15 C 7.496094 14.109375 7.90625 13.203125 8.574219 12.980469 L 10.730469 12.265625 C 11.675781 11.953125 12.648438 12.730469 12.882812 13.996094 L 13.707031 18.4375 C 13.851562 19.21875 13.488281 20.019531 12.90625 20.214844 Z M 12.90625 20.214844 "/>
<path style=" stroke:none;fill-rule:nonzero;fill:rgb(74.901961%,74.901961%,74.901961%);fill-opacity:1;" d="M 14.375 15.546875 L 11.753906 16.414062 C 10.984375 16.671875 10.191406 16.035156 10 15.003906 L 9.128906 10.332031 C 8.964844 9.441406 9.375 8.535156 10.042969 8.3125 L 12.199219 7.601562 C 13.144531 7.285156 14.113281 8.0625 14.351562 9.328125 L 15.175781 13.769531 C 15.324219 14.554688 14.960938 15.351562 14.375 15.546875 Z M 14.375 15.546875 "/>
<path style=" stroke:none;fill-rule:nonzero;fill:rgb(57.254902%,57.254902%,57.254902%);fill-opacity:1;" d="M 15.945312 11.011719 L 13.324219 11.875 C 12.550781 12.132812 11.761719 11.496094 11.570312 10.464844 L 10.699219 5.796875 C 10.535156 4.90625 10.945312 4 11.613281 3.777344 L 13.9375 3.007812 C 14.792969 2.722656 15.664062 3.425781 15.878906 4.5625 L 16.746094 9.234375 C 16.890625 10.015625 16.53125 10.816406 15.945312 11.011719 Z M 15.945312 11.011719 "/>
</g>
</svg>
