<?xml version="1.0" standalone="no"?>
<!DOCTYPE svg PUBLIC "-//W3C//DTD SVG 1.0//EN" "http://www.w3.org/TR/2001/REC-SVG-20010904/DTD/svg10.dtd">
<svg xmlns="http://www.w3.org/2000/svg" xmlns:xlink="http://www.w3.org/1999/xlink" id="body_1" width="1024" height="768">

<g transform="matrix(10.666667 0 0 10.666667 128 -0)">
    <path d="M39.62 60.64L29.14 63.239998C 26.05 64.009995 22.89 62.1 22.119999 59.01L22.119999 59.01L18.65 45C 17.99 42.33 19.63 39.61 22.3 38.94L22.3 38.94L30.919998 36.8C 34.71 35.86 38.589996 38.19 39.53 41.989998L39.53 41.989998L42.829998 55.309998C 43.41 57.66 41.96 60.06 39.62 60.64z" stroke="none" fill="#E2E2E2" fill-rule="nonzero" />
    <path d="M45.5 46.64L35.02 49.239998C 31.93 50.01 28.77 48.1 28 45.01L28 45.01L24.52 30.999998C 23.86 28.329998 25.5 25.609999 28.17 24.939999L28.17 24.939999L36.79 22.8C 40.58 21.859999 44.46 24.189999 45.4 27.99L45.4 27.99L48.7 41.309998C 49.29 43.66 47.85 46.06 45.5 46.64z" stroke="none" fill="#BFBFBF" fill-rule="nonzero" />
    <path d="M51.78 33.03L41.3 35.629997C 38.21 36.399998 35.05 34.489998 34.28 31.399998L34.28 31.399998L30.8 17.389997C 30.14 14.719997 31.779999 11.999998 34.45 11.329998L34.45 11.329998L43.75 9.019999C 47.17 8.169998 50.66 10.279999 51.510002 13.689999L51.510002 13.689999L54.980003 27.699999C 55.57 30.05 54.13 32.45 51.78 33.03z" stroke="none" fill="#929292" fill-rule="nonzero" />
</g>
</svg>