<?xml version="1.0" standalone="no"?>
<!DOCTYPE svg PUBLIC "-//W3C//DTD SVG 20010904//EN"
 "http://www.w3.org/TR/2001/REC-SVG-20010904/DTD/svg10.dtd">
<svg version="1.0" xmlns="http://www.w3.org/2000/svg"
 width="840.000000pt" height="334.000000pt" viewBox="0 0 840.000000 334.000000"
 preserveAspectRatio="xMidYMid meet">

<g transform="translate(0.000000,334.000000) scale(0.100000,-0.100000)"
fill="#000000" stroke="none">
<path d="M902 2538 c-7 -134 -21 -757 -21 -955 l-1 -231 78 -6 c42 -3 84 -5
92 -5 8 0 72 3 143 5 122 5 127 4 127 -15 0 -11 -4 -23 -10 -26 -5 -3 -10 -15
-10 -25 0 -22 -22 -39 -28 -22 -5 17 -58 15 -76 -4 -20 -19 -20 -29 0 -48 19
-20 35 -20 60 -1 29 22 31 19 36 -36 6 -54 18 -69 57 -69 l24 0 -5 -130 c-3
-72 -2 -133 3 -136 5 -3 9 52 9 125 0 144 3 151 69 151 37 0 39 -15 15 -81
-19 -52 -22 -158 -5 -216 17 -61 68 -131 136 -185 l59 -48 106 0 c100 0 109 2
151 29 69 45 125 110 159 184 37 82 56 85 82 13 27 -72 71 -129 138 -180 l60
-46 109 0 109 0 68 53 c57 43 76 66 107 126 34 66 37 80 37 152 0 54 -6 95
-20 130 -10 29 -17 56 -14 61 3 4 141 8 307 8 l302 0 221 119 221 120 187 -1
c102 0 186 -4 186 -9 0 -24 -50 -39 -118 -37 -77 3 -92 -3 -75 -32 10 -14 9
-19 -2 -24 -8 -3 -22 -22 -30 -43 -15 -34 -18 -36 -29 -20 -24 32 -92 11 -85
-28 6 -29 34 -41 68 -28 l29 11 7 -49 c8 -54 25 -67 25 -18 0 27 3 30 28 27
l27 -3 0 -127 c0 -69 3 -130 8 -134 4 -4 7 54 7 128 l0 136 41 7 c22 4 45 3
50 -2 5 -5 -1 -36 -12 -73 -16 -50 -20 -81 -16 -136 7 -103 41 -166 130 -249
l72 -67 116 4 116 3 57 43 c66 50 116 115 140 183 25 69 45 65 81 -18 33 -79
133 -184 191 -203 22 -8 75 -11 134 -8 l98 4 66 57 c85 75 129 159 134 259 l4
68 153 0 c123 0 155 -3 165 -15 7 -8 18 -15 26 -15 7 0 14 -12 16 -27 l3 -28
318 -3 c276 -2 318 0 323 13 7 17 74 21 104 5 11 -6 23 -30 30 -62 15 -72 67
-147 142 -204 l63 -49 105 0 105 0 60 45 c103 78 142 147 160 283 8 57 28 62
41 10 8 -35 12 -38 54 -45 55 -8 130 0 150 17 8 7 41 16 73 20 l57 6 2 77 c6
178 2 193 -60 219 l-33 14 30 28 c25 24 31 37 31 72 0 33 -3 40 -12 31 -18
-18 -42 -15 -55 7 -12 18 -9 20 30 24 l42 4 -42 1 -43 2 -2 118 c-2 64 -2 146
0 182 3 69 -7 254 -14 248 -2 -3 -7 -29 -12 -59 l-7 -54 -34 82 c-33 83 -49
100 -79 84 -9 -4 -100 -9 -201 -9 -101 -1 -185 -3 -186 -4 -3 -3 16 -262 19
-265 6 -7 239 -4 246 3 5 5 11 54 13 109 l3 100 2 -107 2 -107 86 -3 c47 -2
88 0 90 3 2 4 -14 53 -35 110 -50 135 -55 159 -37 159 8 0 18 -9 21 -20 4 -11
9 -18 13 -16 4 2 7 -8 8 -24 1 -15 11 -49 24 -75 12 -26 28 -65 35 -88 11 -38
10 -44 -8 -59 -11 -10 -26 -18 -34 -18 -19 0 -17 -50 3 -72 16 -17 18 -17 30
0 7 9 14 29 14 44 0 15 4 30 10 33 6 4 10 -34 10 -107 l0 -113 -267 1 -268 1
-1 31 c0 17 -3 35 -7 38 -9 10 -9 26 1 21 4 -3 6 98 4 224 l-3 229 194 0 c201
0 269 6 245 21 -7 5 -188 9 -403 9 -302 0 -386 -3 -377 -12 9 -9 12 -112 12
-400 l0 -388 -96 0 c-61 0 -93 4 -89 10 3 6 25 10 47 10 23 0 38 3 35 7 -16
15 -223 22 -659 23 -441 1 -468 2 -490 20 -13 10 -21 21 -18 23 8 8 143 10
610 9 233 -1 427 1 430 6 5 6 -6 1177 -11 1210 -2 9 -553 12 -2719 12 l-2716
0 -2 -42z m73 13 c11 -5 25 -4 31 0 7 6 22 6 37 0 16 -6 28 -6 35 1 6 6 18 8
26 5 13 -5 16 -28 16 -139 0 -265 -13 -748 -21 -748 -12 0 -27 364 -30 735 0
82 -2 95 -11 75 -7 -16 -14 -169 -19 -414 -11 -602 -37 -502 -41 159 -1 171
-4 285 -8 255 -4 -30 -8 -45 -10 -32 -3 25 -6 38 -11 50 -2 4 -6 -183 -9 -416
-3 -303 -8 -425 -17 -430 -7 -4 -12 -52 -14 -132 l-4 -125 2690 -3 c1564 -1
2693 2 2698 7 5 5 6 73 1 157 -4 82 -10 140 -14 129 -11 -31 -20 185 -21 515
-1 168 -4 295 -6 282 -2 -12 -8 -20 -12 -18 -9 6 -21 -274 -22 -528 -1 -94 -4
-196 -8 -226 -6 -53 -7 -54 -13 -20 -4 19 -10 200 -14 402 -4 202 -10 366 -13
364 -3 -2 -7 17 -9 44 -3 54 2 57 88 55 l45 0 6 -115 c4 -63 7 -328 8 -587 l1
-473 -2711 0 -2712 0 5 578 c2 317 7 583 12 590 8 14 22 14 51 3z m295 -2 c0
-4 13 -4 28 2 19 6 38 6 55 0 15 -6 27 -7 27 -1 0 9 127 6 137 -4 3 -3 12 -1
19 5 8 6 21 8 31 4 10 -5 23 -7 28 -6 29 8 135 8 135 1 0 -6 11 -5 26 0 14 6
36 7 50 4 21 -6 24 -12 24 -56 0 -32 -4 -47 -11 -43 -6 4 -9 1 -8 -6 2 -8 -1
-178 -5 -378 -13 -560 -29 -528 -42 79 -3 168 -9 307 -13 310 -5 3 -10 12 -13
20 -3 8 -7 -166 -9 -387 -3 -265 -8 -406 -15 -413 -18 -18 -24 98 -24 450 0
292 -6 368 -25 349 -3 -4 -10 -188 -15 -410 -11 -470 -8 -414 -17 -405 -11 11
-12 27 -19 414 -4 204 -11 372 -15 372 -4 0 -9 12 -11 28 -2 15 -7 -153 -12
-372 -8 -387 -16 -495 -29 -396 -3 25 -9 214 -13 420 -4 206 -10 366 -12 355
-2 -11 -8 -24 -12 -30 -5 -5 -9 -89 -9 -185 -1 -225 -11 -558 -17 -589 -3 -13
-7 -21 -10 -18 -4 3 -10 180 -14 394 -5 213 -12 396 -16 406 -17 46 -23 -26
-23 -327 -1 -321 -8 -466 -21 -466 -11 0 -20 240 -21 559 -1 157 -4 274 -6
258 -2 -15 -8 -25 -12 -23 -4 3 -11 -162 -15 -367 -3 -205 -10 -390 -14 -412
-8 -40 -8 -40 -15 25 -3 36 -9 212 -13 393 -4 180 -10 327 -13 327 -4 0 -8 19
-10 42 -1 23 -4 44 -7 47 -2 2 -4 -142 -4 -321 0 -311 -8 -544 -18 -534 -15
15 -21 123 -24 391 -4 544 -23 599 -32 95 -7 -361 -14 -492 -27 -484 -5 3 -9
74 -9 157 0 251 -14 685 -21 637 -5 -41 -6 -39 -7 23 -1 40 2 66 7 62 5 -3 12
-2 15 3 6 10 116 12 116 1z m618 -1 c8 -8 15 -8 26 2 9 7 23 10 31 6 18 -6 19
-78 8 -583 -10 -487 -27 -403 -39 192 -3 171 -8 312 -10 314 -12 13 -16 -43
-22 -402 -4 -218 -11 -399 -15 -403 -4 -4 -10 -4 -14 0 -9 8 -18 849 -10 871
7 18 28 20 45 3z m222 1 c0 -4 13 -4 28 2 19 6 38 6 54 0 17 -6 29 -6 35 0 6
6 22 7 37 3 25 -6 26 -9 25 -68 -1 -46 -3 -54 -8 -31 -7 30 -7 30 -13 -10 -3
-22 -6 -199 -7 -394 -1 -194 -5 -360 -10 -368 -15 -27 -21 68 -28 438 -5 283
-9 355 -18 341 -9 -12 -14 -123 -18 -377 -6 -304 -15 -449 -28 -425 -1 3 -5
192 -9 420 -4 277 -9 407 -15 390 -9 -23 -10 -21 -16 20 -3 25 -7 -108 -8
-295 0 -187 -4 -385 -8 -439 -12 -188 -25 -64 -33 314 -4 201 -9 373 -12 382
-12 47 -18 22 -18 -73 0 -167 -10 -568 -16 -648 -12 -152 -22 -45 -28 299 -3
195 -6 380 -7 410 -2 54 -2 54 -9 15 -6 -35 -7 -32 -9 28 0 40 3 66 8 62 5 -3
12 -2 15 3 6 10 116 12 116 1z m305 -1 c4 -3 20 -2 37 4 20 7 33 7 40 0 6 -6
20 -6 40 2 24 8 32 8 35 -1 3 -8 12 -9 32 -2 18 6 37 6 53 0 14 -5 29 -7 32
-3 9 9 186 9 192 0 2 -4 17 -2 33 3 18 6 37 6 54 0 15 -6 27 -7 27 -2 0 7 57
8 128 2 8 -1 12 -20 11 -63 -1 -48 -3 -56 -8 -33 -7 28 -8 28 -13 -15 -2 -25
-6 -200 -7 -390 -2 -363 -12 -496 -24 -320 -10 149 -17 379 -17 573 0 146 -2
177 -14 177 -12 0 -15 -62 -18 -392 -2 -287 -6 -398 -15 -413 -7 -11 -13 -18
-14 -15 -1 3 -5 192 -8 420 -5 331 -8 410 -18 389 -8 -18 -14 -128 -18 -320
-12 -611 -29 -644 -40 -81 -5 224 -12 369 -20 395 -10 34 -13 -26 -18 -362 -4
-221 -11 -409 -16 -418 -13 -25 -20 84 -25 461 -3 181 -8 331 -10 333 -15 15
-25 -100 -26 -292 0 -271 -10 -525 -21 -525 -10 0 -14 110 -17 450 -3 274 -8
370 -22 370 -10 0 -20 -242 -21 -520 -1 -129 -4 -248 -8 -265 -16 -72 -23 28
-28 410 -4 225 -10 387 -14 371 -5 -16 -6 -33 -4 -37 3 -4 1 -9 -4 -11 -4 -1
-12 -161 -16 -354 -11 -561 -28 -529 -41 76 -3 168 -9 307 -14 310 -4 3 -10
14 -12 25 -2 11 -7 -163 -9 -387 -3 -268 -8 -411 -15 -418 -18 -18 -24 112
-24 472 0 268 -2 328 -13 328 -11 0 -15 -69 -21 -357 -6 -348 -13 -469 -24
-458 -10 10 -11 35 -18 413 -4 204 -11 372 -15 372 -4 0 -10 19 -12 43 -2 23
-5 -84 -7 -238 -4 -419 -13 -606 -26 -575 -7 16 -14 171 -19 415 -4 215 -9
392 -11 394 -2 2 -6 2 -9 0 -2 -3 -9 -186 -14 -407 -14 -612 -33 -539 -39 153
-1 171 0 313 3 316 7 8 102 5 110 -3z m843 -148 c5 -245 -9 -743 -20 -732 -6
6 -14 169 -19 407 -5 221 -13 404 -19 413 -7 13 -9 8 -10 -23 -3 -329 -18
-784 -27 -798 -5 -7 -11 56 -14 138 -7 206 -11 740 -4 746 3 3 29 5 58 5 l52
-1 3 -155z m77 150 c4 -6 15 -6 32 1 17 6 36 6 54 0 20 -7 29 -6 32 2 3 9 11
9 35 1 22 -9 33 -9 41 -1 8 8 16 9 29 1 11 -8 26 -8 45 -2 19 7 32 7 41 -2 11
-8 19 -8 35 2 15 9 23 10 32 1 8 -8 19 -9 37 -2 16 6 35 6 54 0 15 -6 28 -7
28 -2 0 9 272 7 287 -2 7 -4 14 -3 18 3 8 13 45 13 45 0 0 -6 10 -6 27 1 17 6
36 6 54 0 20 -7 29 -6 32 2 3 9 11 9 35 1 20 -8 34 -8 41 -1 5 5 18 6 28 2 10
-5 21 -7 26 -7 4 1 6 -28 5 -66 -1 -61 -2 -63 -7 -22 -7 48 -21 -386 -21 -637
0 -83 -4 -154 -9 -157 -12 -8 -20 120 -28 499 -5 286 -8 334 -18 300 -8 -26
-14 -167 -18 -400 -9 -606 -35 -513 -39 140 -1 182 -4 305 -6 275 l-5 -55 -12
55 c-11 48 -13 2 -15 -337 -1 -216 -4 -397 -5 -403 -1 -5 -4 -27 -5 -47 l-2
-38 -9 40 c-5 22 -12 203 -15 403 -4 205 -11 362 -16 362 -5 0 -7 3 -5 8 3 4
1 16 -3 27 -4 11 -9 -168 -12 -397 -3 -229 -9 -422 -14 -429 -18 -30 -23 43
-24 391 -2 201 -6 379 -10 395 l-7 30 -6 -35 c-11 -55 -16 -167 -19 -420 -3
-265 -10 -389 -20 -350 -8 29 -18 330 -19 585 0 99 -4 185 -9 190 -4 6 -10 19
-12 30 -2 11 -8 -151 -12 -360 -3 -209 -9 -398 -13 -420 -14 -93 -21 18 -28
404 -7 365 -11 445 -17 368 -1 -15 -5 -27 -9 -27 -3 0 -9 -168 -13 -372 -3
-205 -8 -381 -9 -390 -14 -85 -26 85 -28 377 -1 252 -10 400 -24 400 -6 0 -12
-141 -15 -392 -4 -295 -8 -395 -17 -405 -10 -10 -13 5 -15 72 0 47 -2 90 -3
95 -2 6 -3 156 -4 335 -1 286 -3 322 -15 298 -11 -20 -16 -97 -20 -320 -13
-608 -29 -642 -41 -84 -5 221 -12 371 -19 401 -11 41 -14 -9 -20 -361 -8 -465
-7 -434 -17 -434 -12 0 -18 125 -23 473 -4 297 -7 350 -20 336 -2 -2 -7 -146
-10 -319 -7 -359 -15 -502 -25 -495 -10 6 -21 292 -22 578 -1 120 -5 217 -10
217 -5 0 -10 10 -11 23 -4 46 -15 -367 -17 -586 -1 -178 -4 -228 -13 -225 -16
5 -24 193 -27 573 -2 235 -4 256 -16 215 -9 -32 -14 -144 -18 -400 -2 -195 -9
-366 -14 -379 -15 -38 -23 123 -24 514 -1 187 -5 320 -8 295 -6 -41 -7 -43
-16 -20 -6 17 -11 -116 -15 -395 -4 -231 -8 -422 -10 -425 -11 -21 -20 128
-25 430 -4 195 -10 364 -15 375 -5 11 -10 27 -13 35 -2 8 -7 -151 -10 -355 -4
-203 -10 -395 -14 -425 -14 -117 -23 7 -24 350 -1 190 -4 363 -7 385 -6 40 -6
40 -13 10 -5 -23 -7 -15 -8 32 -1 51 2 62 17 66 30 8 41 7 47 -3z m1225 -2 c0
-4 12 -3 27 3 17 6 36 6 54 0 15 -5 30 -6 34 -3 10 10 108 11 126 1 9 -5 19
-5 23 -1 10 9 116 10 122 0 3 -4 13 -4 22 0 19 10 134 8 150 -2 6 -3 13 -2 16
2 4 7 61 9 124 3 11 -1 12 -13 8 -53 -5 -44 -21 -515 -25 -765 -1 -35 -5 -63
-10 -63 -11 0 -20 217 -24 540 -1 163 -6 241 -14 255 -11 17 -13 13 -14 -35 0
-30 -2 -75 -3 -100 -1 -25 -4 -169 -5 -320 -3 -274 -7 -340 -20 -340 -10 0
-10 -22 -18 445 -9 510 -19 493 -37 -57 -17 -548 -31 -529 -41 57 -4 181 -10
332 -15 335 -4 3 -10 19 -13 35 -2 17 -5 -103 -6 -265 -1 -323 -10 -550 -21
-550 -13 0 -20 144 -21 478 -1 182 -5 332 -9 332 -18 0 -22 -48 -26 -310 -6
-340 -14 -508 -24 -489 -8 15 -20 340 -21 602 0 92 -5 167 -9 167 -5 0 -11 12
-13 28 -2 15 -5 -25 -6 -88 -4 -332 -13 -659 -18 -690 -13 -86 -21 28 -29 416
-8 439 -20 499 -29 139 -11 -450 -16 -580 -24 -588 -10 -10 -18 150 -26 518
-7 295 -7 295 -16 295 -15 0 -19 -92 -19 -415 0 -187 -3 -358 -7 -380 l-6 -40
-10 30 c-5 17 -11 209 -14 427 -4 312 -8 394 -18 385 -8 -9 -14 -114 -18 -387
-4 -206 -11 -391 -15 -410 -8 -35 -8 -35 -15 20 -4 30 -7 222 -8 425 -1 317
-3 364 -14 330 l-13 -40 -4 55 c-2 30 -5 -87 -6 -260 -4 -667 -29 -754 -40
-140 -5 265 -11 381 -19 395 -10 17 -12 5 -13 -70 -1 -168 -11 -570 -16 -652
-3 -46 -10 -83 -15 -83 -5 0 -9 53 -9 118 0 64 -3 257 -7 428 -3 171 -4 318
-1 326 4 9 23 14 62 14 31 0 56 -4 56 -8z m765 2 c4 -6 15 -6 31 0 14 6 30 10
35 10 10 0 12 -586 2 -783 -11 -230 -25 -113 -33 296 -12 545 -25 563 -33 46
-6 -398 -9 -449 -27 -449 -9 0 -25 864 -16 879 9 14 33 14 41 1z m160 1 c11
-5 25 -4 32 1 8 7 23 7 43 0 16 -6 32 -7 34 -3 5 7 102 8 116 1 3 -1 10 -1 15
0 34 7 135 7 135 0 0 -6 12 -5 27 1 17 6 36 6 54 0 16 -5 31 -7 33 -3 3 5 47
7 98 7 l93 -1 -2 -429 c-1 -236 -6 -436 -9 -445 -14 -30 -23 75 -25 295 -1
121 -4 290 -8 375 -6 150 -7 153 -18 100 -7 -33 -14 -198 -17 -414 -3 -235 -8
-362 -15 -369 -8 -8 -11 -1 -12 23 0 19 -4 197 -8 395 -4 232 -11 367 -18 379
-15 27 -18 -30 -21 -404 -3 -302 -7 -390 -22 -390 -9 0 -20 309 -20 587 0 135
-4 223 -10 223 -16 0 -19 -53 -24 -420 -5 -310 -7 -377 -16 -400 -8 -21 -19
101 -19 221 -1 257 -14 600 -22 588 -5 -8 -9 3 -12 27 -2 21 -4 -123 -5 -321
-2 -333 -9 -531 -19 -521 -15 14 -22 175 -23 471 -1 259 -4 344 -14 357 -11
14 -14 -50 -20 -358 -3 -206 -9 -395 -13 -421 -14 -104 -22 6 -25 329 -2 316
-10 501 -18 418 -3 -28 -5 -23 -10 25 -4 35 -8 -52 -10 -212 -1 -150 -4 -277
-5 -283 -1 -5 -3 -81 -4 -167 -1 -116 -4 -154 -12 -146 -10 10 -26 446 -28
776 -1 31 -5 57 -10 57 -8 0 -13 -120 -25 -617 -10 -419 -34 -167 -38 402 -1
142 -4 226 -8 195 -6 -45 -7 -49 -10 -20 l-2 35 -8 -40 c-5 -22 -9 -197 -10
-390 0 -192 -5 -366 -9 -385 -8 -29 -9 -31 -11 -10 -1 14 -3 34 -5 45 -3 11
-8 189 -12 395 -4 206 -9 366 -11 355 -5 -20 -5 -20 -12 0 -4 11 -10 -151 -13
-360 -4 -209 -11 -396 -15 -415 -8 -35 -8 -35 -15 20 -4 30 -7 222 -8 425 0
321 -2 365 -14 330 l-13 -40 -1 62 c-1 51 2 62 17 66 25 7 35 6 57 -2z m1411
-537 c-3 -9 -9 -142 -13 -297 -3 -155 -8 -277 -10 -272 -3 10 -169 10 -210 0
-14 -3 -23 -1 -23 6 0 9 -3 9 -14 0 -21 -17 -26 49 -26 330 l0 249 151 0 c134
0 150 -2 145 -16z m299 -64 c3 -5 3 -21 -1 -35 -6 -25 -6 -25 -119 -25 l-113
0 -5 27 c-3 16 -3 31 0 35 6 12 231 10 238 -2z m111 -35 l11 -40 -41 1 c-38 1
-41 4 -48 35 -8 43 -3 51 35 47 27 -3 33 -9 43 -43z m-371 -499 l50 -14 -88
-1 c-56 -1 -86 -5 -82 -11 3 -5 -3 -10 -14 -10 -23 0 -28 15 -8 23 6 3 1 6
-13 6 -20 1 -22 3 -10 11 22 14 107 12 165 -4z m-4205 -90 c0 -3 -4 -8 -10
-11 -5 -3 -10 -1 -10 4 0 6 5 11 10 11 6 0 10 -2 10 -4z m-1470 -90 c0 -3 -7
-12 -16 -21 -12 -12 -19 -13 -30 -4 -22 18 -16 29 16 29 17 0 30 -2 30 -4z
m4280 -11 c6 -8 10 -22 8 -31 -4 -22 -28 -31 -28 -10 0 9 -7 16 -15 16 -8 0
-15 -7 -15 -16 0 -14 -3 -14 -15 -4 -8 7 -15 18 -15 24 0 33 57 49 80 21z
m114 9 c17 -7 22 -49 7 -58 -5 -4 -17 -3 -26 0 -13 5 -14 8 -3 15 10 7 9 9 -4
9 -10 0 -18 -4 -18 -10 0 -18 -18 -11 -23 9 -8 33 26 51 67 35z m484 -41 c-10
-2 -28 -2 -40 0 -13 2 -5 4 17 4 22 1 32 -1 23 -4z m-2240 -40 c-2 -10 -12
-18 -23 -18 -11 0 -21 8 -23 18 -3 13 3 17 23 17 20 0 26 -4 23 -17z m2162 6
c0 -26 -140 -44 -155 -19 -3 6 -22 10 -41 10 -19 0 -34 -4 -34 -10 0 -5 -9
-10 -21 -10 -23 0 -16 18 11 28 22 8 240 9 240 1z m368 -19 c4 -12 2 -13 -9
-2 -15 14 -79 16 -79 2 0 -12 -147 -14 -154 -1 -11 18 12 22 123 19 91 -2 115
-6 119 -18z m-343 -11 c11 -17 -1 -21 -15 -4 -8 9 -8 15 -2 15 6 0 14 -5 17
-11z m53 -7 c2 -7 -5 -12 -17 -12 -14 0 -19 5 -14 15 6 17 25 15 31 -3z m-530
-24 c6 -49 -68 -64 -83 -17 -10 29 13 51 49 47 25 -2 32 -8 34 -30z m-3448 12
c0 -5 -2 -10 -4 -10 -3 0 -8 5 -11 10 -3 6 -1 10 4 10 6 0 11 -4 11 -10z
m2577 4 c-3 -3 -12 -4 -19 -1 -8 3 -5 6 6 6 11 1 17 -2 13 -5z m70 0 c-3 -3
-12 -4 -19 -1 -8 3 -5 6 6 6 11 1 17 -2 13 -5z m2190 -50 c82 -62 97 -209 27
-274 l-22 -22 -7 21 c-5 17 -10 19 -33 10 -14 -6 -37 -7 -50 -4 -15 4 -21 2
-17 -5 9 -15 -29 -12 -75 6 -31 13 -44 14 -53 5 -16 -16 2 -31 43 -36 18 -3
41 -12 51 -21 18 -16 20 -16 37 -1 10 9 35 18 56 21 31 4 35 2 26 -10 -18 -21
-87 -36 -131 -29 -47 8 -113 54 -134 94 -19 37 -20 63 -1 39 18 -24 28 -22 24
5 -2 16 -9 21 -26 20 -19 -2 -22 2 -22 32 0 27 3 33 16 28 16 -6 34 12 34 35
0 6 -7 12 -15 12 -18 0 -18 5 -5 30 12 23 87 76 115 82 44 8 126 -11 162 -38z
m423 31 c0 -17 5 -16 -85 -18 -59 -1 -70 1 -73 16 -3 15 6 17 77 17 65 0 81
-3 81 -15z m-5576 -10 c145 -69 153 -276 13 -344 -55 -26 -130 -27 -177 -2
-19 10 -50 37 -67 60 -30 38 -33 49 -33 109 1 56 5 73 28 107 53 77 157 107
236 70z m286 5 c0 -5 -7 -10 -15 -10 -8 0 -15 5 -15 10 0 6 7 10 15 10 8 0 15
-4 15 -10z m421 -12 c108 -60 132 -210 48 -298 -82 -85 -224 -78 -295 15 -39
52 -46 143 -15 204 47 91 173 130 262 79z m1970 -11 c60 -45 82 -87 82 -156 0
-85 -38 -143 -115 -176 -96 -40 -205 4 -249 100 -26 55 -24 102 7 163 35 71
87 102 171 102 54 0 67 -4 104 -33z m254 23 c-3 -5 -10 -10 -16 -10 -5 0 -9 5
-9 10 0 6 7 10 16 10 8 0 12 -4 9 -10z m413 -4 c57 -30 112 -112 112 -168 0
-180 -228 -265 -343 -129 -25 30 -47 87 -47 121 0 64 57 151 115 176 40 18
129 17 163 0z m322 3 c0 -4 -5 -9 -12 -11 -8 -3 -3 -14 15 -32 15 -15 27 -29
27 -32 0 -3 -25 -4 -56 -2 -54 3 -55 4 -74 46 l-19 43 59 -2 c33 -1 60 -5 60
-10z m278 -16 c-2 -18 -10 -29 -23 -32 -11 -2 -24 -9 -28 -17 -5 -10 -28 -14
-71 -14 -34 0 -65 2 -68 5 -2 3 12 23 31 45 35 38 38 40 99 40 63 0 63 0 60
-27z m797 10 c-5 -10 -15 -44 -24 -75 -20 -76 -41 -77 -41 -2 0 68 13 94 46
94 21 0 25 -3 19 -17z m622 -13 c3 -16 12 -30 19 -30 19 0 18 -17 -2 -24 -20
-8 -18 -10 -38 38 -20 47 -20 46 -1 46 9 0 18 -12 22 -30z m-2430 -111 c-9
-67 -22 -68 -33 -1 -6 39 -5 42 16 42 21 0 22 -3 17 -41z m-2647 -9 c0 -29 -4
-40 -15 -40 -9 0 -15 9 -15 24 0 13 -3 31 -6 40 -4 12 0 16 15 16 18 0 21 -6
21 -40z"/>
<path d="M6640 1975 c0 -12 18 -15 100 -15 82 0 100 3 100 15 0 12 -18 15
-100 15 -82 0 -100 -3 -100 -15z"/>
<path d="M6698 1653 c23 -2 61 -2 85 0 23 2 4 4 -43 4 -47 0 -66 -2 -42 -4z"/>
<path d="M6698 1623 c23 -2 61 -2 85 0 23 2 4 4 -43 4 -47 0 -66 -2 -42 -4z"/>
<path d="M6698 1593 c23 -2 61 -2 85 0 23 2 4 4 -43 4 -47 0 -66 -2 -42 -4z"/>
<path d="M6698 1563 c23 -2 61 -2 85 0 23 2 4 4 -43 4 -47 0 -66 -2 -42 -4z"/>
<path d="M6665 1540 c-4 -6 23 -10 75 -10 52 0 79 4 75 10 -3 6 -37 10 -75 10
-38 0 -72 -4 -75 -10z"/>
<path d="M6662 1508 c5 -14 97 -23 135 -13 49 12 20 25 -58 25 -60 0 -80 -3
-77 -12z"/>
<path d="M5555 1090 c-7 -12 2 -30 16 -30 5 0 9 9 9 20 0 21 -15 27 -25 10z"/>
<path d="M6815 1076 c-17 -7 -36 -20 -44 -29 -12 -15 -11 -17 3 -17 9 0 19 7
23 16 8 22 44 34 66 22 12 -6 23 -6 31 1 8 6 22 9 32 5 16 -5 16 -4 4 5 -20
15 -78 13 -115 -3z"/>
<path d="M6950 1062 c0 -13 23 -32 39 -32 11 0 10 4 -4 20 -19 21 -35 26 -35
12z"/>
<path d="M6833 990 c-3 -12 -12 -19 -22 -18 -10 2 -16 -4 -16 -16 0 -27 25
-32 32 -6 3 13 11 19 19 16 8 -3 14 -1 14 4 0 6 -4 10 -10 10 -5 0 -10 5 -10
11 0 5 5 7 10 4 6 -3 10 -1 10 4 0 19 -22 12 -27 -9z m-13 -40 c0 -5 -4 -10
-10 -10 -5 0 -10 5 -10 10 0 6 5 10 10 10 6 0 10 -4 10 -10z"/>
<path d="M6874 998 c-4 -6 -2 -14 5 -16 8 -3 4 -14 -14 -32 -28 -30 -28 -63 0
-74 35 -13 72 36 44 58 -20 15 -22 69 -2 62 8 -3 11 -1 8 4 -8 14 -32 13 -41
-2z m23 -84 c-3 -3 -12 -4 -19 -1 -8 3 -5 6 6 6 11 1 17 -2 13 -5z"/>
<path d="M6927 984 c-13 -14 -7 -26 7 -15 10 8 16 9 19 1 3 -6 4 -5 3 2 -3 14
-20 21 -29 12z"/>
<path d="M7020 966 c0 -17 14 -29 23 -20 8 8 -3 34 -14 34 -5 0 -9 -6 -9 -14z"/>
<path d="M6944 928 c-5 -8 -2 -9 9 -5 22 8 21 1 -3 -25 -22 -24 -27 -47 -7
-29 8 6 17 8 21 4 4 -4 4 0 1 9 -4 9 -2 19 4 23 16 9 13 35 -3 35 -8 0 -18 -5
-22 -12z"/>
<path d="M6780 907 c0 -8 7 -18 16 -21 8 -3 12 -10 9 -16 -3 -5 2 -10 12 -10
12 0 14 -3 6 -8 -8 -5 -3 -11 13 -19 13 -6 22 -7 18 -2 -3 5 0 9 5 9 6 0 11
-5 11 -11 0 -5 5 -7 10 -4 16 10 0 27 -21 22 -12 -3 -19 0 -19 9 0 8 -7 17
-15 20 -9 4 -14 13 -13 22 2 9 -5 18 -14 20 -11 2 -18 -3 -18 -11z"/>
<path d="M7027 883 c-11 -10 -8 -43 3 -43 6 0 10 4 10 9 0 5 3 16 6 25 6 16
-7 22 -19 9z"/>
<path d="M6900 850 c0 -6 4 -9 9 -6 5 4 12 1 14 -4 3 -6 4 -5 3 2 -3 15 -26
23 -26 8z"/>
<path d="M1678 1055 c-41 -27 -78 -96 -78 -143 0 -35 18 -82 32 -82 5 0 6 5 3
10 -3 6 1 10 9 10 9 0 16 4 16 9 0 21 -13 41 -26 41 -8 0 -14 7 -14 15 0 8 6
15 14 15 8 0 16 7 20 15 3 8 15 15 26 15 17 0 20 -4 15 -21 -10 -30 13 -77 44
-87 28 -10 81 3 81 20 0 6 7 7 16 4 9 -3 12 -2 8 5 -9 15 -11 80 -2 85 4 3 16
-4 28 -16 11 -11 24 -20 29 -20 5 0 11 -9 14 -21 4 -15 2 -19 -9 -15 -7 3 -18
-3 -23 -13 -7 -13 -5 -22 9 -34 21 -18 27 -13 41 35 17 62 -26 150 -92 183
-45 24 -118 19 -161 -10z m111 -49 c-2 -2 -22 -6 -44 -9 -27 -4 -35 -3 -25 3
14 9 79 15 69 6z"/>
<path d="M1666 814 c-11 -29 6 -42 33 -25 12 8 12 12 2 25 -17 20 -27 20 -35
0z"/>
<path d="M1755 820 c3 -5 8 -10 11 -10 2 0 4 5 4 10 0 6 -5 10 -11 10 -5 0 -7
-4 -4 -10z"/>
<path d="M1830 815 c-9 -11 -9 -17 3 -29 12 -13 17 -13 33 -2 15 12 16 16 5
30 -17 20 -25 20 -41 1z"/>
<path d="M1746 791 c-3 -5 1 -15 10 -22 13 -10 17 -10 25 2 5 8 9 17 9 22 0
10 -38 9 -44 -2z"/>
<path d="M2395 1071 c-62 -26 -110 -104 -102 -169 6 -54 21 -72 42 -51 18 17
10 49 -11 49 -22 0 -16 15 16 38 41 31 50 28 50 -16 0 -83 99 -108 130 -33 7
17 10 40 7 51 -8 29 13 37 34 12 9 -12 22 -22 28 -22 6 0 11 -4 11 -10 0 -5 0
-13 0 -17 0 -5 -6 -8 -12 -8 -19 0 -22 -33 -4 -50 17 -17 23 -11 37 38 15 54
1 96 -52 149 -46 46 -51 48 -101 47 -29 0 -62 -4 -73 -8z m78 -68 c-7 -2 -21
-2 -30 0 -10 3 -4 5 12 5 17 0 24 -2 18 -5z"/>
<path d="M2353 815 c-15 -17 9 -40 32 -31 20 7 19 32 -1 40 -19 7 -17 8 -31
-9z"/>
<path d="M2525 816 c-18 -13 -18 -14 -1 -31 16 -17 19 -17 34 -1 15 14 15 18
1 31 -13 13 -18 13 -34 1z"/>
<path d="M2436 791 c-3 -5 1 -15 10 -22 13 -10 17 -10 24 1 5 8 6 18 4 22 -7
11 -31 10 -38 -1z"/>
<path d="M4329 1057 c-52 -35 -79 -82 -79 -139 0 -27 5 -58 10 -69 10 -17 13
-18 25 -5 20 19 19 56 0 56 -22 0 -18 19 8 41 35 29 54 25 49 -13 -5 -44 27
-78 71 -78 18 0 40 -6 48 -12 12 -11 12 -11 2 1 -10 12 -10 18 3 32 21 24 25
90 5 113 -10 12 -1 9 22 -8 20 -16 37 -32 37 -37 0 -5 7 -9 15 -9 8 0 15 -7
15 -15 0 -8 -6 -15 -14 -15 -24 0 -28 -32 -6 -52 20 -19 20 -19 30 7 42 109
-38 225 -155 225 -38 0 -61 -6 -86 -23z m118 -53 c-3 -3 -12 -4 -19 -1 -8 3
-5 6 6 6 11 1 17 -2 13 -5z"/>
<path d="M4313 814 c-9 -23 13 -40 32 -24 12 10 13 16 4 26 -15 18 -28 18 -36
-2z"/>
<path d="M4483 823 c-17 -6 -16 -21 1 -38 12 -12 16 -12 29 3 13 14 13 19 1
30 -7 6 -14 12 -16 11 -2 0 -9 -3 -15 -6z"/>
<path d="M4393 788 c2 -7 12 -13 22 -13 10 0 20 6 23 13 2 7 -6 12 -23 12 -17
0 -25 -5 -22 -12z"/>
<path d="M5024 1061 c-67 -41 -102 -134 -74 -200 10 -26 14 -28 26 -16 19 18
18 55 -1 55 -8 0 -15 7 -15 15 0 8 5 15 10 15 6 0 19 9 30 20 22 22 43 19 33
-5 -7 -21 4 -60 23 -79 21 -21 71 -20 97 2 16 12 22 27 20 55 -1 45 14 58 38
29 9 -12 22 -22 28 -22 6 0 11 -9 11 -20 0 -12 -5 -17 -14 -14 -23 9 -28 -27
-7 -48 20 -18 21 -18 31 1 17 32 12 113 -9 147 -34 57 -81 84 -142 84 -35 0
-65 -7 -85 -19z m73 -57 c-3 -3 -12 -4 -19 -1 -8 3 -5 6 6 6 11 1 17 -2 13 -5z
m40 0 c-3 -3 -12 -4 -19 -1 -8 3 -5 6 6 6 11 1 17 -2 13 -5z"/>
<path d="M5003 815 c-10 -10 -9 -16 2 -25 21 -18 51 6 34 26 -14 17 -21 17
-36 -1z"/>
<path d="M5173 823 c-17 -6 -16 -21 0 -37 11 -11 16 -11 32 0 15 11 16 16 5
29 -13 16 -17 17 -37 8z"/>
<path d="M5082 788 c5 -15 37 -18 41 -3 1 6 -9 12 -22 13 -16 3 -22 -1 -19
-10z"/>
<path d="M6937 1594 c-15 -15 -6 -24 23 -24 30 0 41 -14 18 -23 -9 -4 -8 -6 2
-6 25 -1 42 15 38 35 -2 14 -13 20 -38 22 -20 2 -39 0 -43 -4z"/>
<path d="M1035 1300 c3 -5 11 -10 16 -10 6 0 7 5 4 10 -3 6 -11 10 -16 10 -6
0 -7 -4 -4 -10z"/>
</g>
</svg>
